<svg xmlns="http://www.w3.org/2000/svg" width="68.156" height="61.336"><defs><clipPath id="a"><path fill="none" d="M0 0h68.156v61.336H0z" data-name="Rectangle 1"/></clipPath></defs><g clip-path="url(#a)" data-name="Group 1"><path fill="#fff" d="M.001 0v61.336h2.26c15.427 0 28.886-6.968 35.243-17.506l-3.872-2.33c-5.038 8.348-16.078 14.385-29.111 15.057V4.863c8.711.456 16.641 3.1 22.331 7.5a28.829 28.829 0 0 1 4.4 4.181 25.877 25.877 0 0 0-4.34 14.196c0 4.947 3.083 8.373 7.171 8.373s7.15-3.425 7.16-8.373a25.511 25.511 0 0 0-4.341-14.2 26.238 26.238 0 0 1 4.4-4.177c5.691-4.4 13.623-7.048 22.333-7.5v56.473h4.519V0h-2.253C55.282 0 45.63 3.309 38.544 8.79a25.873 25.873 0 0 0-4.461 4.121 25.932 25.932 0 0 0-4.47-4.121C22.526 3.309 12.874 0 2.26 0Zm34.073 20.623a20.66 20.66 0 0 1 2.661 10.033c0 3.233-1.7 3.936-2.652 3.936s-2.634-.7-2.643-4.091a20.427 20.427 0 0 1 2.634-9.878" data-name="Path 1"/></g></svg>